<svg xmlns="http://www.w3.org/2000/svg" xmlns:xlink="http://www.w3.org/1999/xlink" width="879" height="879" viewBox="0 0 879 879">
  <defs>
    <clipPath id="clip-sample1">
      <rect width="879" height="879"/>
    </clipPath>
  </defs>
  <g id="sample1" clip-path="url(#clip-sample1)">
    <g id="Group_27" data-name="Group 27">
      <g id="Group_26" data-name="Group 26" transform="translate(683.545 173.14)">
        <path id="Path_561" data-name="Path 561" d="M604.762,369.362a44.358,44.358,0,0,0-19.043-6.552c-3.11-.319-6.5-.229-9,1.657a1.835,1.835,0,0,0-.93,1.644,2.052,2.052,0,0,0,.879,1.122c7.75,5.914,19.463,6.653,28.041,2.129" transform="translate(-570.832 38.65)" fill="#e0e0e0"/>
        <path id="Path_562" data-name="Path 562" d="M602.494,373.931a92.974,92.974,0,0,1-12.3-10.821,31.177,31.177,0,0,1-7.648-14.263,5.735,5.735,0,0,1,.612-4.767c9.8,7.648,17.5,17.551,19.4,29.851" transform="translate(-569.049 33.546)" fill="#e0e0e0"/>
        <path id="Path_563" data-name="Path 563" d="M598.576,374.209a44.359,44.359,0,0,1,.229-16.149,21.884,21.884,0,0,1,8.6-13.32c1.7,3.964.969,8.527-.229,12.657a61.7,61.7,0,0,1-8.527,17.959" transform="translate(-564.748 33.727)" fill="#e0e0e0"/>
        <path id="Path_564" data-name="Path 564" d="M611.176,381.37c-5.838.714-10.911,3.824-15.3,7.724a28.857,28.857,0,0,0-8.731,15c5.723-.357,10.579-4.4,14.1-8.922s5.952-9.483,9.827-13.715" transform="translate(-567.712 43.786)" fill="#e0e0e0"/>
        <path id="Path_565" data-name="Path 565" d="M608.187,391.205A37.664,37.664,0,0,1,612.5,355.58c3.327,11.828,2.1,25.173-4.346,35.625" transform="translate(-562.659 36.704)" fill="#e0e0e0"/>
        <path id="Path_566" data-name="Path 566" d="M623.276,395.4a27.264,27.264,0,0,0-26.04,14.989c-.319.65-.612,1.466-.178,2.039a1.937,1.937,0,0,0,1.733.51c5.1-.331,9.674-3.416,13.434-6.934s7.023-7.571,11.166-10.617" transform="translate(-565.052 47.625)" fill="#e0e0e0"/>
        <path id="Path_567" data-name="Path 567" d="M617.729,402.527a48.625,48.625,0,0,1-.484-27.1c.956-3.48,2.549-7.15,5.787-8.795a.892.892,0,0,1,1.44.5,16.378,16.378,0,0,1,1.364,7.775,48.507,48.507,0,0,1-1.275,7.864c-1.007,4.805-1.555,9.98-4.193,14.123a29,29,0,0,0-1.67,3.1c-.5,1.058-.51,1.428-.956,2.269" transform="translate(-559.913 39.683)" fill="#e0e0e0"/>
        <path id="Path_568" data-name="Path 568" d="M643.837,405.11c-2.549-9.483.153-20.954,6.118-28.73.446-.574,1.02-1.185,1.746-1.109,1.1.1,1.377,1.568,1.338,2.664a52,52,0,0,1-9.2,27.174" transform="translate(-552.409 42.109)" fill="#e0e0e0"/>
        <path id="Path_569" data-name="Path 569" d="M646,402.447c11.471,3,24.7.089,34.274-6.972a27.736,27.736,0,0,0-18.545-2.333c-6.195,1.428-11.867,4.193-15.716,9.254" transform="translate(-551.552 46.837)" fill="#e0e0e0"/>
        <path id="Path_570" data-name="Path 570" d="M648.005,399.225c6.449-10.5,18.8-17.36,31.113-17.985-1.415,5.009-5.532,8.922-10.2,11.242s-9.827,3.378-14.938,4.372c-1.988.382-4.716.816-6,2.371" transform="translate(-551.008 43.75)" fill="#e0e0e0"/>
        <path id="Path_571" data-name="Path 571" d="M645.092,379.147a89.762,89.762,0,0,0,3.977-18.214c.484-6.207-.4-12.746-3.62-18.023-6.029,11.65-6.628,25.263-.535,36.861" transform="translate(-553.028 33.225)" fill="#e0e0e0"/>
        <path id="Path_572" data-name="Path 572" d="M660,368.577c7.049-12.746,21.413-23.019,35.944-24.447-5.608,13.957-20.9,24.74-35.944,24.447" transform="translate(-547.708 33.56)" fill="#e0e0e0"/>
        <path id="Path_573" data-name="Path 573" d="M656.56,365.719c10.5,1.606,19.438,8.31,29.316,12.376a13.167,13.167,0,0,0,6.615,1.275,5.162,5.162,0,0,0,3.237-9.152,14.1,14.1,0,0,0-4.793-2.919c-10.694-4.448-22.153-4.563-33.407-1.861" transform="translate(-548.652 38.916)" fill="#e0e0e0"/>
        <path id="Path_574" data-name="Path 574" d="M651.79,371.158c2.384.676,3.187,1.912,5.1,3.518a54.706,54.706,0,0,0,22.191,11.395c.841.2,1.95.293,2.371-.472s-.089-1.479-.573-2.078a30.386,30.386,0,0,0-13.4-9.088c-5.1-1.912-9.547-4.206-15.665-3.709" transform="translate(-549.962 40.844)" fill="#e0e0e0"/>
        <path id="Path_575" data-name="Path 575" d="M646.41,336.405a42.062,42.062,0,0,0,32.2,10.949,2.269,2.269,0,0,0,1.466-.523c.8-.879-.166-2.243-1.109-2.983-9.47-7.38-20.929-10.439-32.553-7.444" transform="translate(-551.44 31.126)" fill="#e0e0e0"/>
        <path id="Path_576" data-name="Path 576" d="M652.79,335.7a44.853,44.853,0,0,1,40.163-6.628,31.865,31.865,0,0,1-19.119,8.412A60.671,60.671,0,0,1,652.8,335.7" transform="translate(-549.688 28.847)" fill="#e0e0e0"/>
        <path id="Path_577" data-name="Path 577" d="M651.429,323.91c-.93-9.445-.331-16.9-.981-26.4,0-.752-.217-1.67-.93-1.937-.981-.382-1.81.828-2.129,1.835a30.221,30.221,0,0,0,4.028,26.3" transform="translate(-551.551 20.207)" fill="#e0e0e0"/>
        <path id="Path_578" data-name="Path 578" d="M649.72,325.008A55.725,55.725,0,0,0,665.372,309.8c3.085-4.232,5.7-9.3,5-14.492a14.977,14.977,0,0,0-11.293,5.608,31.535,31.535,0,0,0-5.748,11.573c-1.275,4.155-2.129,8.425-3.607,12.517" transform="translate(-550.531 20.154)" fill="#e0e0e0"/>
        <path id="Path_579" data-name="Path 579" d="M661.816,320.358a126.188,126.188,0,0,0,38.518-22.713c-4.6-1.848-9.865-.739-14.467,1.109-10.516,4.244-19.119,11.408-24.217,21.5" transform="translate(-547.255 20.534)" fill="#e0e0e0"/>
        <path id="Path_580" data-name="Path 580" d="M653.11,325.059c7.112.777,14.339,1.275,21.388.1s13.485-3.9,19.96-6.628a2.4,2.4,0,0,0,1.364-1.032,1.568,1.568,0,0,0-.5-1.708,4,4,0,0,0-1.7-.79c-7.049-1.976-14.645-1.058-21.579,1.275a100.476,100.476,0,0,0-18.941,8.769" transform="translate(-549.6 25.265)" fill="#e0e0e0"/>
        <path id="Path_581" data-name="Path 581" d="M622.038,343.154c-4.856-9.789-4.538-21.209-.344-31.3,2.944,4.5,3.3,10.2,2.766,15.563s-2.167,10.86-2.269,16.226" transform="translate(-559.111 24.695)" fill="#e0e0e0"/>
        <path id="Path_582" data-name="Path 582" d="M613.061,328.741A43.668,43.668,0,0,0,580.61,342.57a30.323,30.323,0,0,0,17.768-3.3,90.413,90.413,0,0,0,15.3-10.2" transform="translate(-569.508 29.333)" fill="#e0e0e0"/>
        <path id="Path_583" data-name="Path 583" d="M602.427,325.459c-5.927-.484-11.624-1.275-17.322.523a20.789,20.789,0,0,0-13.2,11.191,31.342,31.342,0,0,0,16.238-3.059,94.317,94.317,0,0,0,14.288-8.655" transform="translate(-571.9 28.268)" fill="#e0e0e0"/>
        <path id="Path_584" data-name="Path 584" d="M618.483,327.438c-5.328-3.492-10.8-7.049-17-8.489s-13.4-.382-17.73,4.3c5.022,2.944,11.115,3.3,16.939,3.288s12.963,0,18.456,1.874" transform="translate(-568.646 26.481)" fill="#e0e0e0"/>
        <path id="Path_585" data-name="Path 585" d="M613.229,333.724c-9.1-8.922-12.555-25.008-8.922-37.244a56.7,56.7,0,0,1,8.922,37.244" transform="translate(-563.392 20.475)" fill="#e0e0e0"/>
        <path id="Path_586" data-name="Path 586" d="M630.66,312.155c1.721-4,2.919-8.2,4.461-12.262a35.3,35.3,0,0,1,6.373-11.293,16.825,16.825,0,0,1,11.28-5.85,45.428,45.428,0,0,1-21.9,29.469" transform="translate(-555.764 16.705)" fill="#e0e0e0"/>
        <path id="Path_587" data-name="Path 587" d="M632.177,313.459c-2.842-3.913-6.131-9.228-9.98-12.147s-8.922-4.691-13.587-3.569a31.674,31.674,0,0,0,23.567,15.716" transform="translate(-561.819 20.728)" fill="#e0e0e0"/>
        <path id="Path_588" data-name="Path 588" d="M628.86,312.405a67.476,67.476,0,0,1-4.486-14.556A22.789,22.789,0,0,1,626.642,283c5.009,9.458,6.615,19.6,2.473,29.469" transform="translate(-557.597 16.773)" fill="#e0e0e0"/>
        <path id="Path_589" data-name="Path 589" d="M630.69,287.31c2.842-9.368,11.471-16.264,20.687-19.438a7.648,7.648,0,0,1,3.62-.535,3.135,3.135,0,0,1,2.677,2.218c.331,1.606-.981,3.034-2.218,4.091A70.269,70.269,0,0,1,630.69,287.31" transform="translate(-555.756 12.463)" fill="#e0e0e0"/>
        <path id="Path_590" data-name="Path 590" d="M630.813,283.774c.357-6.042.727-12.172,2.7-17.844s5.748-11.1,11.255-13.6c.943,6.093-1.759,12.172-5,17.424s-7.163,10.2-9.113,16.06" transform="translate(-555.764 8.351)" fill="#e0e0e0"/>
        <path id="Path_591" data-name="Path 591" d="M634.442,287.366c-2.345-6.832-2.549-15.5-6.679-21.452-2.855-4.155-7.431-7-9.891-11.395a17.309,17.309,0,0,0,.573,12.937A37.627,37.627,0,0,0,626,278.291c3.034,3.225,5.621,5.659,8.438,9.075" transform="translate(-559.547 8.953)" fill="#e0e0e0"/>
        <path id="Path_592" data-name="Path 592" d="M630.764,481.935c-.178,0-.331-45.567-.344-101.751s.127-101.764.306-101.764.344,45.554.357,101.764S630.956,481.935,630.764,481.935Z" transform="translate(-555.831 15.516)" fill="#e0e0e0"/>
        <path id="Path_593" data-name="Path 593" d="M670.509,331a10.467,10.467,0,0,1-1.708.637l-4.716,1.593c-3.977,1.351-9.432,3.314-15.3,5.736s-11.471,4.563-14.556,7.3a10.6,10.6,0,0,0-2.932,3.824c-.446,1.071-.522,1.721-.586,1.708s0-.166,0-.472a7.275,7.275,0,0,1,.344-1.275,10.261,10.261,0,0,1,2.855-4.13,25.373,25.373,0,0,1,6.373-3.913c2.549-1.185,5.328-2.409,8.3-3.633,5.94-2.434,11.471-4.334,15.474-5.583,2-.625,3.645-1.083,4.78-1.389A8.1,8.1,0,0,1,670.509,331Z" transform="translate(-555.757 29.954)" fill="#e0e0e0"/>
        <path id="Path_594" data-name="Path 594" d="M682.888,305.87a3.236,3.236,0,0,1-.484.51l-1.453,1.377c-1.364,1.275-3.212,2.906-5.468,4.958l-18.163,16.175c-7.087,6.309-13.218,12.338-17.462,16.876-2.129,2.269-3.824,4.155-4.945,5.455l-1.275,1.517a2.793,2.793,0,0,1-.5.5,2.462,2.462,0,0,1,.382-.586c.28-.37.688-.9,1.275-1.58,1.083-1.377,2.7-3.3,4.792-5.608a226.887,226.887,0,0,1,17.373-17.067c7.112-6.3,13.587-11.956,18.29-16.034,2.32-1.976,4.206-3.607,5.6-4.805l1.542-1.275a2.926,2.926,0,0,1,.5-.408Z" transform="translate(-555.083 23.053)" fill="#e0e0e0"/>
        <path id="Path_595" data-name="Path 595" d="M646.114,332.4c-.191-.076,1.275-3.505,2.766-7.826s2.192-7.979,2.383-7.941a27.1,27.1,0,0,1-1.759,8.145,50.887,50.887,0,0,1-2.2,5.481,8.922,8.922,0,0,1-1.185,2.141Z" transform="translate(-551.525 26.008)" fill="#e0e0e0"/>
        <path id="Path_596" data-name="Path 596" d="M636.42,357.767a7.99,7.99,0,0,1-1.1-1.275l-2.8-3.582c-2.345-3.046-5.6-7.24-9.241-11.828s-7-8.718-9.419-11.688c-1.147-1.428-2.1-2.549-2.868-3.543a8.162,8.162,0,0,1-.981-1.351,7.3,7.3,0,0,1,1.185,1.185c.727.79,1.759,1.95,3.021,3.4,2.549,2.906,5.927,6.985,9.572,11.586s6.845,8.833,9.113,11.956c1.122,1.555,2.027,2.817,2.626,3.709a7.924,7.924,0,0,1,.892,1.428Z" transform="translate(-561.435 28.169)" fill="#e0e0e0"/>
        <path id="Path_597" data-name="Path 597" d="M624.854,344.768a15.919,15.919,0,0,1-3.658-6.845,19.311,19.311,0,0,1-.829-6.9h.293c-.14.535-.229.816-.28.8s0-.306,0-.841h.293a31.477,31.477,0,0,0,1.16,6.7,50.6,50.6,0,0,0,3.021,7.074Z" transform="translate(-558.601 29.951)" fill="#e0e0e0"/>
        <path id="Path_598" data-name="Path 598" d="M619.248,331.291a11.869,11.869,0,0,0-2.549-1.479,17.2,17.2,0,0,0-7.087-.574,44.327,44.327,0,0,0-7.138,1.16,21.388,21.388,0,0,1-2.944.7,10.2,10.2,0,0,1,2.817-1.147,32.46,32.46,0,0,1,7.214-1.364,15.5,15.5,0,0,1,7.316.79,4.627,4.627,0,0,1,2.371,1.912Z" transform="translate(-564.313 29.255)" fill="#e0e0e0"/>
        <path id="Path_599" data-name="Path 599" d="M618.91,328.9c0,.1-1.491-.6-3.913-1.428a39.258,39.258,0,0,0-19.718-1.5c-2.549.446-4.04.918-4.079.816a3.391,3.391,0,0,1,1.02-.433,26.189,26.189,0,0,1,2.957-.828,35,35,0,0,1,19.986,1.491,26.332,26.332,0,0,1,2.791,1.275C618.591,328.635,618.986,328.9,618.91,328.9Z" transform="translate(-566.6 28.228)" fill="#e0e0e0"/>
        <path id="Path_600" data-name="Path 600" d="M631.753,320.9a81.58,81.58,0,0,1-2.855-9.916,80.619,80.619,0,0,1-2.218-10.069,80,80,0,0,1,2.855,9.9,80.007,80.007,0,0,1,2.218,10.082Z" transform="translate(-556.857 21.691)" fill="#e0e0e0"/>
        <path id="Path_601" data-name="Path 601" d="M632.483,318.9a47.337,47.337,0,0,0-3.161-5.94,26.4,26.4,0,0,0-4.652-4.805,4.461,4.461,0,0,1,1.8.931,14.34,14.34,0,0,1,3.39,3.492,13.078,13.078,0,0,1,2.626,6.322Z" transform="translate(-557.409 23.682)" fill="#e0e0e0"/>
        <path id="Path_602" data-name="Path 602" d="M639.68,433.326c-.064,0-.2-1.083-.714-3.021a43.416,43.416,0,0,0-3.046-7.89c-3.148-6.437-8.922-14.594-16.149-22.764-3.607-4.117-7.112-8-10.082-11.726a82.016,82.016,0,0,1-7.2-10.388,49.949,49.949,0,0,1-3.633-7.711c-.331-.956-.586-1.7-.714-2.205a3.821,3.821,0,0,1-.191-.79s.4,1.045,1.147,2.906a55.2,55.2,0,0,0,3.824,7.571,86.1,86.1,0,0,0,7.278,10.2c2.97,3.684,6.475,7.558,10.095,11.675,7.291,8.2,13.014,16.455,16.073,22.943a39.168,39.168,0,0,1,2.881,8.03c.2.981.344,1.759.4,2.281a3.482,3.482,0,0,1,.038.892Z" transform="translate(-564.747 39.793)" fill="#e0e0e0"/>
        <path id="Path_603" data-name="Path 603" d="M666.661,387.15a15.509,15.509,0,0,1-1.886,1.058,42.509,42.509,0,0,0-4.882,3.237,54.572,54.572,0,0,0-6.373,5.863c-2.256,2.371-4.576,5.1-6.947,8.106-4.741,5.94-9.177,11.2-11.828,15.41a53.655,53.655,0,0,0-2.97,5.1,14.66,14.66,0,0,1-1.045,1.886,3.024,3.024,0,0,1,.178-.523c.14-.344.331-.854.637-1.479a46.5,46.5,0,0,1,2.8-5.213c2.549-4.3,6.972-9.636,11.7-15.563,2.383-2.97,4.729-5.748,7.023-8.119a50.973,50.973,0,0,1,6.59-5.812,33.011,33.011,0,0,1,5.1-3.085c.625-.319,1.134-.51,1.466-.663A2.923,2.923,0,0,1,666.661,387.15Z" transform="translate(-555.745 45.373)" fill="#e0e0e0"/>
        <path id="Path_604" data-name="Path 604" d="M664.829,397.51a28.035,28.035,0,0,1-3.977.574,52.644,52.644,0,0,0-9.458,1.861,28.564,28.564,0,0,0-8.463,4.436c-1.95,1.517-2.868,2.766-2.957,2.689s.153-.37.586-.918a15.5,15.5,0,0,1,2.078-2.129,25.606,25.606,0,0,1,8.553-4.7,42.251,42.251,0,0,1,9.61-1.7,21.673,21.673,0,0,1,4.028-.115Z" transform="translate(-553.212 48.205)" fill="#e0e0e0"/>
        <path id="Path_605" data-name="Path 605" d="M640.883,406.768c-.2-.115,1.593-2.855,2.983-6.551s1.619-6.985,1.848-6.947a6.375,6.375,0,0,1,0,2.141,22.946,22.946,0,0,1-1.16,5.035,24.45,24.45,0,0,1-2.32,4.614C641.457,406.182,640.96,406.819,640.883,406.768Z" transform="translate(-552.961 47.053)" fill="#e0e0e0"/>
        <path id="Path_606" data-name="Path 606" d="M678.316,359.39a3.555,3.555,0,0,1-.637.331l-1.874.854c-.816.357-1.81.79-2.932,1.389s-2.447,1.173-3.824,2l-2.18,1.275c-.752.433-1.491.943-2.281,1.44-1.606.981-3.212,2.167-4.933,3.39A84.443,84.443,0,0,0,640.7,389.687c-1.16,1.759-2.307,3.4-3.225,5.1-.472.8-.956,1.568-1.364,2.333l-1.16,2.218c-.778,1.4-1.275,2.728-1.874,3.824a22.854,22.854,0,0,0-1.275,2.983l-.777,1.9a3.665,3.665,0,0,1-.319.65A2.434,2.434,0,0,1,630.9,408l.663-1.95c.293-.854.676-1.874,1.2-3.046s1.032-2.549,1.784-3.926l1.134-2.256c.4-.777.879-1.555,1.275-2.371.9-1.657,2.039-3.327,3.2-5.1A81.713,81.713,0,0,1,659.274,369.6c1.734-1.211,3.365-2.409,5-3.365.8-.484,1.555-.994,2.32-1.415l2.218-1.211c1.389-.8,2.715-1.377,3.824-1.925a28.146,28.146,0,0,1,3-1.275c.828-.293,1.428-.535,1.925-.739a2.918,2.918,0,0,1,.765-.28Z" transform="translate(-555.751 37.75)" fill="#e0e0e0"/>
        <path id="Path_607" data-name="Path 607" d="M645.72,375.374a4.793,4.793,0,0,1,1.568-2.332,9.967,9.967,0,0,1,6.309-2.422,17.4,17.4,0,0,1,6.641,1.275,9.8,9.8,0,0,1,2.549,1.275,15.427,15.427,0,0,1-2.689-.79,20.2,20.2,0,0,0-6.462-1.083,10.2,10.2,0,0,0-6.029,2.116,20.391,20.391,0,0,0-1.886,1.963Z" transform="translate(-551.629 40.834)" fill="#e0e0e0"/>
        <path id="Path_608" data-name="Path 608" d="M642.38,380.367a23.771,23.771,0,0,0,1.8-5.825,23.21,23.21,0,0,0-.408-6.093,3.823,3.823,0,0,1,.752,1.7,12.2,12.2,0,0,1-1.02,8.744C642.941,379.9,642.444,380.406,642.38,380.367Z" transform="translate(-552.546 40.238)" fill="#e0e0e0"/>
        <path id="Path_609" data-name="Path 609" d="M606,424.16c.981,17.411,6.22,35.115,14.3,53.023h35.09c7.648-17.73,12.58-35.408,13.447-53.023Z" transform="translate(-562.536 55.536)" fill="#e0e0e0"/>
        <path id="Path_610" data-name="Path 610" d="M661.971,446.331c0,.178-11.561.331-25.811.331s-25.811-.153-25.811-.331S621.911,446,636.161,446,661.971,446.153,661.971,446.331Z" transform="translate(-561.342 61.533)" fill="#fafafa"/>
        <path id="Path_611" data-name="Path 611" d="M660.665,451.281c0,.178-10.834.331-24.217.331s-24.217-.153-24.217-.331,10.834-.331,24.217-.331S660.665,451.1,660.665,451.281Z" transform="translate(-560.825 62.892)" fill="#fafafa"/>
        <path id="Path_612" data-name="Path 612" d="M617.741,433.13a98.7,98.7,0,0,1,0,16.162,98.684,98.684,0,0,1,0-16.162Z" transform="translate(-559.403 57.999)" fill="#fafafa"/>
        <path id="Path_613" data-name="Path 613" d="M632.491,433.13a105.793,105.793,0,0,1,0,16.735,105.8,105.8,0,0,1,0-16.736Z" transform="translate(-555.352 57.999)" fill="#fafafa"/>
        <path id="Path_614" data-name="Path 614" d="M646.341,433a110.19,110.19,0,0,1,0,17.08,110.19,110.19,0,0,1,0-17.08Z" transform="translate(-551.549 57.963)" fill="#fafafa"/>
        <path id="Path_615" data-name="Path 615" d="M667.484,433.2c0,.178-13.562.319-30.272.319s-30.272-.14-30.272-.319,13.549-.331,30.272-.331S667.484,433.036,667.484,433.2Z" transform="translate(-562.278 57.928)" fill="#fafafa"/>
        <path id="Path_616" data-name="Path 616" d="M737.25,193.4a4.6,4.6,0,0,1,3.48,5.506l-.854,3.824L732,237.14a3.046,3.046,0,0,1-3.633,2.307l-78.719-18.036a3.034,3.034,0,0,1-2.307-3.467l7.418-44.789a3.034,3.034,0,0,1,3.671-2.549l17.844,4.079a7.24,7.24,0,0,1,4.206,2.74l2.957,3.964Z" transform="translate(-551.196 -14.11)" fill="#e0e0e0"/>
        <rect id="Rectangle_37" data-name="Rectangle 37" width="88.241" height="53.253" transform="translate(104.861 165.558) rotate(12.9)" fill="#f5f5f5"/>
        <path id="Path_617" data-name="Path 617" d="M649.26,180.519l-5.838,55.636a1.976,1.976,0,0,0,1.5,2.116l83.818,19.2a1.95,1.95,0,0,0,2.294-1.338l16.57-53.164a1.95,1.95,0,0,0-1.415-2.549L651.58,178.747a1.963,1.963,0,0,0-2.32,1.772Z" transform="translate(-552.263 -11.864)" fill="#ebebeb"/>
        <path id="Path_620" data-name="Path 620" d="M712.726,121.023,664.584,136a6.3,6.3,0,0,1-7.89-4.142L635.918,65.221a6.373,6.373,0,0,1,4.155-7.9l30.591-9.509L701.879,64.8,716.932,113.1a6.373,6.373,0,0,1-4.206,7.928Z" transform="translate(-554.395 -47.81)" fill="#ebebeb"/>
        <path id="Path_621" data-name="Path 621" d="M663.07,47.83l5.838,18.749a5.889,5.889,0,0,0,7.354,3.824l18.023-5.621Z" transform="translate(-546.865 -47.805)" fill="#e0e0e0"/>
        <path id="Path_622" data-name="Path 622" d="M669.1,62.936c.076.242-4.856,1.988-11,3.9s-11.2,3.276-11.268,3.034,4.843-1.988,11-3.9S669.021,62.694,669.1,62.936Z" transform="translate(-551.324 -43.664)" fill="#fafafa"/>
        <path id="Path_623" data-name="Path 623" d="M686.078,67.734c.064.242-8.081,3-18.2,6.144S649.5,79.4,649.42,79.154s8.068-3,18.189-6.144S686,67.491,686.078,67.734Z" transform="translate(-550.613 -42.344)" fill="#fafafa"/>
        <path id="Path_624" data-name="Path 624" d="M691.539,73.873c.076.242-8.807,3.225-19.846,6.653s-20.037,6.042-20.113,5.8,8.807-3.225,19.846-6.666S691.462,73.631,691.539,73.873Z" transform="translate(-550.02 -40.657)" fill="#fafafa"/>
        <path id="Path_625" data-name="Path 625" d="M693.606,80.423c.076.242-8.807,3.225-19.833,6.666s-20.037,6.029-20.113,5.787,8.807-3.225,19.833-6.666S693.491,80.181,693.606,80.423Z" transform="translate(-549.449 -38.859)" fill="#fafafa"/>
        <path id="Path_626" data-name="Path 626" d="M695.609,87c.064.242-8.82,3.225-19.846,6.666S655.727,99.7,655.65,99.457s8.807-3.225,19.846-6.653S695.609,86.724,695.609,87Z" transform="translate(-548.902 -37.053)" fill="#fafafa"/>
        <path id="Path_627" data-name="Path 627" d="M697.669,93.533c.076.242-8.807,3.225-19.846,6.653s-20.037,6.042-20.113,5.8,8.807-3.225,19.846-6.666S697.592,93.291,697.669,93.533Z" transform="translate(-548.337 -35.259)" fill="#fafafa"/>
      </g>
      <g id="Group_25" data-name="Group 25" transform="translate(134 173.682)">
        <path id="Path_628" data-name="Path 628" d="M735.531,48.15H133.678A18.788,18.788,0,0,0,114.89,66.938v425.1a18.788,18.788,0,0,0,18.788,18.788h231s14.683,45.44-30.858,68.956H549.8s-51.417-17.64-38.238-68.956H735.506a18.788,18.788,0,0,0,18.775-18.788V66.938A18.788,18.788,0,0,0,735.531,48.15Z" transform="translate(-114.89 -48.15)" fill="#455a64"/>
        <path id="Path_629" data-name="Path 629" d="M376.291,376.853c8.183,11.7-4.627,24.511-16.328,16.328a4.194,4.194,0,0,1-1.007-1.007c-8.17-11.7,4.627-24.5,16.328-16.328A3.978,3.978,0,0,1,376.291,376.853Z" transform="translate(-48.578 41.126)" fill="#263238"/>
        <path id="Path_630" data-name="Path 630" d="M135.389,54.26H729.353a12.364,12.364,0,0,1,12.364,12.364V431.389H123V66.675A12.364,12.364,0,0,1,135.389,54.26Z" transform="translate(-112.663 -46.472)" fill="#fff"/>
        <path id="Path_631" data-name="Path 631" d="M134.688,54.26H732.157a9.585,9.585,0,0,1,9.585,9.585V85.6H123V65.923A11.663,11.663,0,0,1,134.688,54.26Z" transform="translate(-112.663 -46.472)" fill="#ebebeb"/>
        <path id="Path_632" data-name="Path 632" d="M143.763,68.006a4.346,4.346,0,1,1-4.346-4.346,4.346,4.346,0,0,1,4.346,4.346Z" transform="translate(-109.349 -43.891)" fill="#382626"/>
        <path id="Path_633" data-name="Path 633" d="M153.923,68.006a4.346,4.346,0,1,1-4.346-4.346A4.346,4.346,0,0,1,153.923,68.006Z" transform="translate(-106.559 -43.891)" fill="#263238"/>
        <path id="Path_634" data-name="Path 634" d="M163.593,68.006a4.346,4.346,0,1,1-4.346-4.346A4.346,4.346,0,0,1,163.593,68.006Z" transform="translate(-103.903 -43.891)" fill="#263238"/>
        <path id="Path_635" data-name="Path 635" d="M599.819,411.277c0,.2-85.64.357-191.267.357s-191.292-.153-191.292-.357,85.628-.357,191.292-.357S599.819,411.022,599.819,411.277Z" transform="translate(-86.779 51.467)" fill="#263238"/>
      </g>
      <rect id="Rectangle_35" data-name="Rectangle 35" width="128.301" height="102.567" transform="matrix(0.987, -0.159, 0.159, 0.987, 0.309, 457.6)" fill="#f5f5f5"/>
      <path id="Path_558" data-name="Path 558" d="M159.148,255l-.612.115-1.772.306-6.87,1.134-25.925,4.257L32.53,275.687l.28-.382C37.654,305.449,43.224,340,49.1,376.559h0l-.421-.306,126.683-20.279-.255.357c-4.831-30.5-8.833-55.789-11.637-73.481-1.377-8.846-2.473-15.78-3.212-20.534q-.548-3.556-.841-5.43c-.178-1.275-.268-1.874-.268-1.874s.127.6.331,1.8.51,3.021.892,5.353c.778,4.742,1.912,11.65,3.365,20.457,2.881,17.717,7.01,43.043,11.981,73.608v.306h-.306L48.743,376.928h-.357v-.357h0C42.522,340,36.991,305.449,32.16,275.3v-.331h.331L124.2,260.417l25.874-4.066,6.819-1.058,1.746-.268Z" transform="translate(-32.16 182.225)" fill="#e0e0e0"/>
      <rect id="Rectangle_36" data-name="Rectangle 36" width="119.29" height="89.655" transform="matrix(0.987, -0.159, 0.159, 0.987, 5.688, 463.267)" fill="#ebebeb"/>
      <path id="Path_559" data-name="Path 559" d="M47.79,358.16l32.3-61.64L111.1,326.855l14.327-21.171,40.137,33.56Z" transform="translate(-27.868 193.626)" fill="#e0e0e0"/>
      <path id="Path_560" data-name="Path 560" d="M104.782,288.361a9.394,9.394,0,1,1-10.758-7.775,9.394,9.394,0,0,1,10.758,7.775Z" transform="translate(-17.344 189.218)" fill="#e0e0e0"/>
      <path id="Path_618" data-name="Path 618" d="M109.582,146.3a3.658,3.658,0,0,1,3.072,4.142c-.178,1.275-.357,2.549-.446,3.072l-4.091,27.7a2.4,2.4,0,0,1-2.728,2.039l-63.348-9.368A2.409,2.409,0,0,1,40,171.338l3.085-35.88a2.409,2.409,0,0,1,2.753-2.192l14.327,2.116a5.825,5.825,0,0,1,3.505,1.912l2.549,2.944Z" transform="translate(-30.008 148.789)" fill="#e0e0e0"/>
      <rect id="Rectangle_38" data-name="Rectangle 38" width="69.988" height="42.24" transform="translate(14.517 289.289) rotate(8.41)" fill="#f5f5f5"/>
      <path id="Path_619" data-name="Path 619" d="M39.03,141.564l-1.16,44.318a1.555,1.555,0,0,0,1.275,1.581l67.477,9.98a1.542,1.542,0,0,0,1.733-1.2l9.84-43.069a1.542,1.542,0,0,0-1.275-1.886l-76.17-11.267a1.555,1.555,0,0,0-1.721,1.542Z" transform="translate(-30.592 150.649)" fill="#ebebeb"/>
      <g id="Plant" transform="translate(68.769 458.37)">
        <path id="Path_742" data-name="Path 742" d="M193.852,343.268c-12.109-18.52-11.65-45.592,2.817-62.341,4.487-5.188,10.758-9.712,17.6-9.126s12.644,6.6,14.785,13.307,1.389,13.957.14,20.878c-1.759,9.687-4.691,19.6-11.471,26.767s-15.3,15.193-23.924,10.477" transform="translate(-124.972 -271.546)" fill="#19867a"/>
        <path id="Path_743" data-name="Path 743" d="M196.684,404.805a27.684,27.684,0,0,1,7.711-31.432c2.791-2.269,6.373-4.028,9.9-3.11s5.914,4.55,6.373,8.2a22.828,22.828,0,0,1-1.823,10.77c-1.784,4.844-4.193,9.674-8.31,12.746s-9.865,6.016-13.893,2.8" transform="translate(-122.388 -244.562)" fill="#19867a"/>
        <path id="Path_744" data-name="Path 744" d="M182.352,402c3.327-16.417-5.315-34.529-20.177-42.266-4.614-2.4-10.3-3.824-14.951-1.491s-7.036,8.2-6.666,13.511,2.932,10.2,5.748,14.722c3.951,6.373,8.795,12.478,15.537,15.652s15.754,5.621,20.508-.127" transform="translate(-137.257 -248.12)" fill="#19867a"/>
        <path id="Path_745" data-name="Path 745" d="M185.113,369.65c5.8-18.7-4.028-41.386-20.394-52.118-5.1-3.327-11.471-5.646-17.194-3.48s-9.164,8.693-9.343,14.926,2.205,12.211,4.958,17.844c3.824,7.826,8.756,15.537,16.238,20.037s19.552,8.922,25.76,2.842" transform="translate(-137.902 -260.161)" fill="#19867a"/>
        <path id="Path_746" data-name="Path 746" d="M193.127,446.016a4.754,4.754,0,0,1-.191-.9l-.382-2.549c-.076-.574-.166-1.275-.268-1.886s-.268-1.44-.421-2.231c-.306-1.593-.625-3.416-1.147-5.392-.242-.994-.5-2.039-.752-3.123s-.637-2.18-.981-3.339c-.625-2.32-1.542-4.716-2.409-7.278a127.333,127.333,0,0,0-16.544-30.947c-1.657-2.129-3.148-4.232-4.742-6.029l-2.243-2.664-2.18-2.358c-1.364-1.53-2.7-2.791-3.824-3.926L155.36,371.8l-1.428-1.275-1.963-1.759a4.321,4.321,0,0,1-.65-.663,3.467,3.467,0,0,1,.752.535l2.065,1.657,1.479,1.211c.51.484,1.071.994,1.67,1.542,1.185,1.109,2.549,2.358,3.964,3.824l2.231,2.332,2.282,2.638c1.631,1.8,3.148,3.888,4.831,6.029a122.516,122.516,0,0,1,16.672,31.088c.854,2.549,1.746,5.009,2.358,7.354.319,1.16.637,2.281.93,3.365s.484,2.141.714,3.148c.484,2,.765,3.824,1.032,5.443.127.8.255,1.555.37,2.243s.127,1.275.191,1.912c.1,1.071.178,1.937.242,2.626a4.69,4.69,0,0,1,.026.969Z" transform="translate(-134.291 -245.088)" fill="#263238"/>
        <path id="Path_747" data-name="Path 747" d="M192.306,460.592a1.365,1.365,0,0,1,0-.37,5.875,5.875,0,0,1,.076-1.083c.089-1.02.217-2.409.382-4.155.089-.9.191-1.912.293-3s.115-2.307.178-3.582c.1-2.549.344-5.494.255-8.731v-5.1c0-1.784-.178-3.594-.268-5.494-.127-3.824-.65-7.839-1.109-12.1a173.13,173.13,0,0,0-15.78-53.087c-1.937-3.824-3.7-7.482-5.672-10.745-.956-1.644-1.823-3.263-2.766-4.754l-2.753-4.283c-1.682-2.766-3.48-5.1-4.971-7.176-.752-1.045-1.428-2.027-2.1-2.906l-1.874-2.358-2.549-3.263-.663-.867c-.14-.2-.217-.306-.2-.319s.1.076.268.255l.714.816,2.715,3.186c.586.7,1.275,1.479,1.937,2.32s1.377,1.835,2.154,2.868c1.53,2.09,3.365,4.385,5.1,7.138l2.8,4.257c.956,1.491,1.835,3.123,2.817,4.754,2,3.263,3.824,6.934,5.748,10.758a183.537,183.537,0,0,1,10.133,26.027,185.173,185.173,0,0,1,5.7,27.34c.446,4.27.93,8.323,1.032,12.147.076,1.912.229,3.747.229,5.519v5.1c0,3.25-.229,6.182-.37,8.757-.089,1.275-.14,2.485-.242,3.582s-.255,2.09-.37,3c-.217,1.759-.4,3.135-.535,4.155-.064.433-.115.778-.153,1.071a1.146,1.146,0,0,1-.153.319Z" transform="translate(-133.891 -256.311)" fill="#263238"/>
        <path id="Path_748" data-name="Path 748" d="M215.305,289.34a2.344,2.344,0,0,1-.166.344l-.51.969-2.078,3.7c-.446.8-.981,1.67-1.491,2.664l-1.619,3.263c-.586,1.173-1.211,2.409-1.861,3.735s-1.275,2.791-1.9,4.283-1.377,3.072-2.052,4.729-1.275,3.416-2.014,5.213l-1.058,2.753c-.319.943-.637,1.912-.969,2.881q-.994,2.919-2.027,6.016c-2.549,8.3-5,17.539-7.049,27.353s-3.39,19.285-4.423,27.914-1.53,16.442-1.708,23.019c-.166,3.288-.2,6.258-.217,8.922s0,4.856,0,6.692,0,3.2.064,4.232v1.109a1.275,1.275,0,0,1,0,.382,1.785,1.785,0,0,1,0-.382,6.075,6.075,0,0,0-.077-1.1c0-1.032-.115-2.447-.2-4.232s-.14-4.091-.14-6.7,0-5.6.089-8.922c.1-6.59.7-14.416,1.542-23.083a280.75,280.75,0,0,1,4.372-28.041,268.339,268.339,0,0,1,7.125-27.417c.714-2.052,1.4-4.066,2.065-6.016.344-.969.676-1.937.994-2.881l1.083-2.753,2.065-5.213c.688-1.657,1.428-3.225,2.09-4.729s1.275-2.932,1.963-4.27l1.925-3.722,1.682-3.237c.535-.981,1.1-1.848,1.555-2.638l2.205-3.633.586-.93C215.216,289.429,215.293,289.327,215.305,289.34Z" transform="translate(-125.37 -266.716)" fill="#263238"/>
        <path id="Path_749" data-name="Path 749" d="M209.455,378.49a19,19,0,0,1-1.275,2.256c-.892,1.415-2.1,3.505-3.531,6.131s-3,5.8-4.589,9.407a114.653,114.653,0,0,0-4.448,12.007,118.705,118.705,0,0,0-3.1,12.44,97.382,97.382,0,0,0-1.53,10.362c-.255,2.97-.472,5.379-.535,7.036a17.409,17.409,0,0,1-.217,2.549,16.786,16.786,0,0,1-.1-2.549,65.963,65.963,0,0,1,.306-7.087,105.328,105.328,0,0,1,1.351-10.452,119.617,119.617,0,0,1,3.072-12.529,116.655,116.655,0,0,1,4.537-12.07,104.205,104.205,0,0,1,4.767-9.394c1.491-2.549,2.791-4.652,3.747-6.016a14.7,14.7,0,0,1,1.542-2.09Z" transform="translate(-123.636 -242.235)" fill="#263238"/>
        <path id="Path_750" data-name="Path 750" d="M165.47,422.69h53.176L212.21,477H172.085Z" transform="translate(-130.406 -230.098)" fill="#455a64"/>
        <path id="Path_751" data-name="Path 751" d="M166.99,460.7l4.512,5.863h40.29l4.652-5.672Z" transform="translate(-129.988 -219.66)" fill="#263238"/>
        <path id="Path_752" data-name="Path 752" d="M216.192,435.305c0,.217-11.038.4-24.651.4s-24.651-.178-24.651-.4,11.038-.4,24.651-.4S216.192,435.088,216.192,435.305Z" transform="translate(-130.016 -226.742)" fill="#fafafa"/>
        <path id="Path_753" data-name="Path 753" d="M216.192,438.145c0,.217-11.038.4-24.651.4s-24.651-.178-24.651-.4,11.038-.4,24.651-.4S216.192,437.928,216.192,438.145Z" transform="translate(-130.016 -225.962)" fill="#fafafa"/>
        <path id="Path_754" data-name="Path 754" d="M215.3,440.885c0,.229-10.656.408-23.8.408s-23.784-.178-23.784-.408,10.656-.4,23.784-.4S215.3,440.668,215.3,440.885Z" transform="translate(-129.788 -225.21)" fill="#fafafa"/>
        <path id="Path_755" data-name="Path 755" d="M177.785,330.84a1.733,1.733,0,0,1,0,.51c0,.408-.076.892-.127,1.479-.14,1.364-.319,3.186-.548,5.417-.484,4.563-1.185,10.872-2,17.844a7.231,7.231,0,0,1-.089.777v.229h-.229c-6.832.115-12.988.178-17.424.2h-6.679a2.464,2.464,0,0,1-.5,0h.5l1.428-.076,5.239-.166c4.448-.115,10.592-.242,17.424-.357l-.255.242a2.4,2.4,0,0,1,.089-.777c.816-6.959,1.581-13.256,2.167-17.844.293-2.205.535-4.028.714-5.392.089-.586.153-1.058.217-1.466a2.652,2.652,0,0,1,.076-.625Z" transform="translate(-134.602 -255.32)" fill="#263238"/>
        <path id="Path_756" data-name="Path 756" d="M167.924,318.09a1.657,1.657,0,0,1,0,.535v7.138c-.076,4.729-.2,11.267-.382,18.482v1.134h-.28a166.462,166.462,0,0,0-17.844-.4c-2.282.064-4.117.166-5.392.229H142.56a2.55,2.55,0,0,1-.51,0,1.918,1.918,0,0,0,.5-.1l1.466-.166c1.275-.127,3.11-.28,5.392-.408a142.7,142.7,0,0,1,17.934.242l-.28.268v-.854c.178-7.214.37-13.753.535-18.482.089-2.307.166-4.193.217-5.608,0-.6.064-1.109.089-1.517a2.677,2.677,0,0,1,.025-.5Z" transform="translate(-136.837 -258.821)" fill="#263238"/>
        <path id="Path_757" data-name="Path 757" d="M154.9,313.75a8.922,8.922,0,0,1,.331,1.568l.79,4.27c.688,3.607,1.759,8.591,3.288,14.021l.153.574-.535-.268-.637-.306a45.743,45.743,0,0,0-14.174-4.143c-1.886-.229-3.429-.319-4.5-.357a12.481,12.481,0,0,1-1.657-.089,2.184,2.184,0,0,0,.433-.064,8.262,8.262,0,0,1,1.275,0,39.525,39.525,0,0,1,4.538.178,42.98,42.98,0,0,1,14.314,4.053l.65.319-.382.306a138.524,138.524,0,0,1-3.136-14.11c-.306-1.81-.51-3.288-.625-4.308a9.139,9.139,0,0,1-.127-1.644Z" transform="translate(-137.96 -260.013)" fill="#263238"/>
        <path id="Path_758" data-name="Path 758" d="M214.042,393.864c0,.076-1.542-.076-4.015-.178a68.06,68.06,0,0,0-9.674.319c-.765.076-1.517.178-2.231.268h-.255v-.255c-.574-3.212-1.058-6.042-1.377-8.081a21.263,21.263,0,0,1-.421-3.276,23.3,23.3,0,0,1,.765,3.212c.408,2.014.956,4.844,1.555,8.056l-.306-.217c.727-.1,1.479-.2,2.243-.28a54.515,54.515,0,0,1,9.674-.14c1.275.1,2.256.229,2.944.331a3.491,3.491,0,0,1,1.1.242Z" transform="translate(-122.003 -241.09)" fill="#263238"/>
        <path id="Path_759" data-name="Path 759" d="M217.607,386.293c0,.089-1.479-.255-3.888-.548a42.839,42.839,0,0,0-9.445-.1l-1.67.217h-.268v-.28c-.344-3.3-.612-6.233-.777-8.336a23.072,23.072,0,0,1-.178-3.4,22.7,22.7,0,0,1,.523,3.365c.268,2.09.612,5.009.956,8.323l-.306-.242,1.7-.217a36.632,36.632,0,0,1,9.547.255,26.737,26.737,0,0,1,2.83.6,4.346,4.346,0,0,1,.981.37Z" transform="translate(-120.546 -243.512)" fill="#263238"/>
        <path id="Path_760" data-name="Path 760" d="M225.446,312.475a3.274,3.274,0,0,1-.523.268l-1.555.688-5.761,2.46-19.043,7.89-1.032.421-.242.1-.1-.242-8.055-18.176-2.371-5.506-.612-1.491c-.14-.357-.2-.535-.178-.548a3.628,3.628,0,0,1,.268.5c.191.382.433.867.714,1.466l2.549,5.43c2.116,4.665,5,11.025,8.2,18.112l-.344-.14,1.032-.421,19.119-7.75,5.812-2.294,1.593-.6a1.912,1.912,0,0,1,.535-.166Z" transform="translate(-124.778 -264.244)" fill="#263238"/>
        <path id="Path_761" data-name="Path 761" d="M228.184,294.346a2.052,2.052,0,0,1-.472.344l-1.4.9-5.188,3.237L203.8,309.4l-.28.166-.115-.306-.306-.841c-2.83-7.648-5.379-14.5-7.265-19.578-.879-2.473-1.606-4.487-2.141-5.965l-.561-1.631a2.206,2.206,0,0,1-.153-.574,2.74,2.74,0,0,1,.255.535q.268.637.65,1.606l2.307,5.927c1.925,5.1,4.525,11.943,7.405,19.54l.319.828-.4-.128,17.411-10.426,5.277-3.1,1.453-.816A2.718,2.718,0,0,1,228.184,294.346Z" transform="translate(-122.851 -269.097)" fill="#263238"/>
        <path id="Path_762" data-name="Path 762" d="M222.948,284.591a8.722,8.722,0,0,1-1.147.663c-.739.421-1.823,1.032-3.136,1.835a55.7,55.7,0,0,0-9.636,7.546l-.676.65.229-.9c.229-.956.446-1.95.612-2.983a34.644,34.644,0,0,0-.778-14.186,39.935,39.935,0,0,0-1.364-4.13,11.211,11.211,0,0,1-.574-1.491,7.445,7.445,0,0,1,.765,1.415,31.365,31.365,0,0,1,1.542,4.1,33.407,33.407,0,0,1,.918,14.352c-.178,1.058-.4,2.078-.637,3.034l-.446-.255a50.983,50.983,0,0,1,9.84-7.456,31.411,31.411,0,0,1,3.225-1.708A5.611,5.611,0,0,1,222.948,284.591Z" transform="translate(-119.144 -271.59)" fill="#263238"/>
        <path id="Path_763" data-name="Path 763" d="M176.738,375.34a9.14,9.14,0,0,1-.255,1.377c-.178.879-.446,2.154-.739,3.735a92.818,92.818,0,0,0-1.428,12.606v.242h-.242l-1.185.064c-5.277.319-10.057.586-13.511.739l-4.091.166a8.327,8.327,0,0,1-1.517,0,8.925,8.925,0,0,1,1.5-.2l4.079-.331c3.454-.255,8.221-.574,13.5-.892l1.2-.064-.255.255a76.386,76.386,0,0,1,1.606-12.644c.331-1.581.663-2.855.9-3.722A6.094,6.094,0,0,1,176.738,375.34Z" transform="translate(-133.619 -243.1)" fill="#263238"/>
        <path id="Path_764" data-name="Path 764" d="M168.673,363.59a8.655,8.655,0,0,1-.089,1.389c-.115.981-.255,2.243-.433,3.824-.382,3.2-.956,7.648-1.632,12.631v.217h-.229l-1.708.115c-5.4.357-10.273.918-13.791,1.377l-4.168.561a9.076,9.076,0,0,1-1.542.153,8.268,8.268,0,0,1,1.5-.357c.981-.2,2.4-.459,4.142-.739,3.518-.548,8.4-1.173,13.817-1.542l1.721-.1-.255.229c.688-4.984,1.275-9.419,1.81-12.606.229-1.517.433-2.779.586-3.824a6.375,6.375,0,0,1,.268-1.326Z" transform="translate(-136.005 -246.327)" fill="#263238"/>
        <path id="Path_765" data-name="Path 765" d="M157.571,358.53c.089,0-.242,1.453-.625,3.824a69.4,69.4,0,0,0-.854,9.419v.293h-.306l-.892-.115a84.789,84.789,0,0,0-10.044-.586H141.8a4.931,4.931,0,0,1-1.134,0,4.37,4.37,0,0,1,1.122-.178c.714-.076,1.759-.153,3.059-.2a64.206,64.206,0,0,1,10.12.433l.892.127-.306.255a55.163,55.163,0,0,1,1.032-9.47c.242-1.185.472-2.129.65-2.779a4.067,4.067,0,0,1,.331-1.02Z" transform="translate(-137.216 -247.716)" fill="#263238"/>
        <path id="Path_766" data-name="Path 766" d="M209.97,370.28a48.351,48.351,0,0,1-2.371,5.392,47.31,47.31,0,0,1-2.549,5.315,39.755,39.755,0,0,1,4.933-10.707Z" transform="translate(-119.537 -244.49)" fill="#263238"/>
        <path id="Path_767" data-name="Path 767" d="M216.676,375.84a52.25,52.25,0,0,0-6.042,1.275,54.647,54.647,0,0,0-5.685,2.409,16.723,16.723,0,0,1,11.726-3.633Z" transform="translate(-119.564 -242.963)" fill="#263238"/>
      </g>
      <g id="Floor" transform="translate(33.866 704.802)">
        <path id="Path_768" data-name="Path 768" d="M860.558,465.261c0,.178-179.509.331-400.888.331S58.73,465.44,58.73,465.261s179.471-.331,400.939-.331S860.558,465.019,860.558,465.261Z" transform="translate(-58.73 -464.93)" fill="#263238"/>
      </g>
    </g>
    <g id="Group_10" data-name="Group 10" transform="translate(352.685 455.659)">
      <rect id="Rectangle_1" data-name="Rectangle 1" width="201.328" height="68.972" rx="34.486" transform="translate(0.315 0.219)"/>
      <text id="Upload" transform="translate(55.315 43.719)" fill="#fff" font-size="25" font-family="Poppins-Medium, Poppins" font-weight="500"><tspan x="0" y="0">Upload</tspan></text>
    </g>
    <g id="Group_28" data-name="Group 28" transform="translate(-82.771 110.099) rotate(-13)">
      <circle id="Ellipse_15" data-name="Ellipse 15" cx="77.307" cy="77.307" r="77.307" transform="translate(366.553 311.048) rotate(-33.82)" fill="#fac855"/>
      <rect id="Rectangle_34" data-name="Rectangle 34" width="71.392" height="48.531" transform="translate(506.984 347.262) rotate(-167.1)" fill="#fff"/>
      <path id="Path_556" data-name="Path 556" d="M289.215,126.223,357.022,78.7,248.86,53.94Z" transform="translate(171.709 262.259)" fill="#fff"/>
    </g>
  </g>
</svg>
